<?xml version="1.0" encoding="UTF-8" standalone="no"?>
<!DOCTYPE svg PUBLIC "-//W3C//DTD SVG 1.1//EN" "http://www.w3.org/Graphics/SVG/1.1/DTD/svg11.dtd">
<svg width="100%" height="100%" viewBox="0 0 834 221" version="1.1" xmlns="http://www.w3.org/2000/svg" xmlns:xlink="http://www.w3.org/1999/xlink" xml:space="preserve" xmlns:serif="http://www.serif.com/" style="fill-rule:evenodd;clip-rule:evenodd;stroke-linejoin:round;stroke-miterlimit:2;">
    <g transform="matrix(1.73174,0,0,1.73174,-1744.2,-5398.72)">
        <g transform="matrix(4.16667,0,0,4.16667,0,2958.12)">
            <path d="M242.226,67.62L241.727,67.62L241.727,63.149L242.226,63.149L242.226,67.62ZM243.099,64.506L243.531,64.506L243.531,64.932C243.727,64.593 244.016,64.422 244.398,64.418C244.562,64.418 244.712,64.449 244.849,64.515C245.159,64.661 245.327,65.029 245.349,65.619L245.351,65.768L245.351,67.62L244.889,67.62L244.889,65.754C244.889,65.304 244.776,65.021 244.551,64.91C244.468,64.868 244.374,64.847 244.27,64.847C243.803,64.843 243.567,65.145 243.562,65.754L243.562,67.62L243.099,67.62L243.099,64.506ZM246.483,66.682C246.509,67.083 246.694,67.283 247.037,67.28C247.42,67.276 247.616,67.105 247.623,66.771C247.625,66.614 247.561,66.5 247.433,66.431C247.35,66.39 247.26,66.354 247.163,66.32C247,66.267 246.839,66.212 246.677,66.158C246.462,66.083 246.315,65.995 246.235,65.89C246.128,65.754 246.074,65.57 246.074,65.34C246.072,65.156 246.115,64.992 246.204,64.847C246.292,64.701 246.405,64.597 246.539,64.532C246.696,64.456 246.865,64.418 247.045,64.418C247.338,64.418 247.566,64.479 247.731,64.604C247.848,64.695 247.93,64.799 247.975,64.914C248.011,65.005 248.033,65.147 248.04,65.344L247.559,65.344C247.537,65.012 247.376,64.847 247.078,64.847C246.93,64.852 246.816,64.879 246.736,64.932C246.61,65.016 246.55,65.13 246.555,65.276C246.55,65.44 246.616,65.557 246.756,65.622C246.888,65.677 247.085,65.746 247.35,65.828C247.469,65.866 247.58,65.91 247.685,65.961C247.959,66.099 248.098,66.35 248.103,66.713C248.103,67.041 247.996,67.299 247.78,67.489C247.609,67.64 247.375,67.713 247.08,67.709C246.675,67.713 246.383,67.605 246.206,67.388C246.09,67.25 246.021,67.016 246.002,66.682L246.483,66.682ZM248.511,64.506L249.026,64.506L249.026,63.923L249.489,63.684L249.489,64.506L250.121,64.506L250.121,64.925L249.489,64.925L249.489,66.809L249.496,67.008L249.513,67.113C249.543,67.227 249.632,67.285 249.782,67.28C249.872,67.28 249.984,67.263 250.121,67.232L250.121,67.66C249.927,67.693 249.772,67.709 249.652,67.709C249.256,67.707 249.046,67.507 249.029,67.113L249.026,66.788L249.026,64.925L248.511,64.925L248.511,64.506ZM251.222,67.62L250.76,67.62L250.76,64.506L251.222,64.506L251.222,67.62ZM251.246,63.739L250.738,63.739L250.738,63.143L251.246,63.143L251.246,63.739ZM251.767,64.506L252.281,64.506L252.281,63.923L252.743,63.684L252.743,64.506L253.374,64.506L253.374,64.925L252.743,64.925L252.743,66.809L252.751,67.008L252.768,67.113C252.797,67.227 252.887,67.285 253.037,67.28C253.126,67.28 253.238,67.263 253.374,67.232L253.374,67.66C253.182,67.693 253.027,67.709 252.908,67.709C252.51,67.707 252.301,67.507 252.283,67.113L252.281,66.788L252.281,64.925L251.767,64.925L251.767,64.506ZM254.431,64.506L254.431,66.291C254.429,66.525 254.45,66.72 254.493,66.87C254.559,67.141 254.75,67.278 255.066,67.28C255.294,67.285 255.479,67.194 255.619,67.01C255.711,66.889 255.757,66.648 255.759,66.291L255.759,64.506L256.22,64.506L256.22,67.62L255.792,67.62L255.792,67.19C255.599,67.534 255.312,67.707 254.933,67.709C254.579,67.709 254.318,67.578 254.15,67.316C254.031,67.128 253.97,66.781 253.968,66.276L253.968,64.506L254.431,64.506ZM256.759,64.506L257.275,64.506L257.275,63.923L257.737,63.684L257.737,64.506L258.369,64.506L258.369,64.925L257.737,64.925L257.737,66.809L257.744,67.008L257.762,67.113C257.792,67.227 257.881,67.285 258.03,67.28C258.12,67.28 258.232,67.263 258.369,67.232L258.369,67.66C258.175,67.693 258.019,67.709 257.9,67.709C257.504,67.707 257.295,67.507 257.277,67.113L257.275,66.788L257.275,64.925L256.759,64.925L256.759,64.506ZM258.782,66.056C258.779,65.718 258.83,65.42 258.938,65.162C259.061,64.864 259.24,64.657 259.475,64.54C259.638,64.458 259.819,64.418 260.014,64.418C260.202,64.42 260.372,64.458 260.528,64.532C260.792,64.659 260.985,64.898 261.103,65.251C261.185,65.494 261.225,65.762 261.223,66.054C261.223,66.409 261.17,66.713 261.063,66.965C260.933,67.27 260.75,67.476 260.513,67.589C260.347,67.669 260.171,67.709 259.984,67.709C259.596,67.709 259.295,67.551 259.079,67.236C258.882,66.953 258.783,66.56 258.782,66.056M259.263,66.086C259.261,66.329 259.29,66.549 259.351,66.744C259.452,67.096 259.669,67.276 260,67.28C260.258,67.285 260.452,67.154 260.584,66.884C260.689,66.667 260.742,66.386 260.742,66.041C260.741,65.801 260.71,65.58 260.648,65.376C260.542,65.027 260.332,64.852 260.016,64.847C259.756,64.854 259.558,64.985 259.424,65.245C259.318,65.447 259.265,65.728 259.263,66.086M263.788,63.149L265.007,63.149C265.153,63.149 265.292,63.158 265.421,63.177C265.678,63.217 265.881,63.329 266.035,63.513C266.202,63.712 266.287,63.965 266.29,64.274C266.289,64.488 266.246,64.674 266.164,64.832C266.06,65.021 265.944,65.143 265.81,65.205C265.773,65.223 265.713,65.24 265.633,65.258C266.159,65.4 266.423,65.788 266.423,66.418C266.418,66.883 266.265,67.221 265.963,67.43C265.825,67.527 265.669,67.585 265.496,67.604C265.405,67.612 265.243,67.618 265.007,67.62L263.788,67.62L263.788,63.149ZM264.286,67.103L265.022,67.103C265.324,67.103 265.531,67.064 265.641,66.99C265.83,66.864 265.924,66.644 265.924,66.331C265.919,65.813 265.618,65.551 265.022,65.547L264.286,65.547L264.286,67.103ZM264.286,65.029L265.03,65.029C265.543,65.025 265.798,64.799 265.792,64.353C265.79,63.898 265.537,63.67 265.03,63.666L264.286,63.666L264.286,65.029ZM267.029,64.506L267.491,64.506L267.491,64.847L267.593,64.708C267.668,64.613 267.752,64.544 267.844,64.5C267.949,64.448 268.063,64.42 268.184,64.418L268.327,64.418L268.327,64.948L268.168,64.934C267.906,64.934 267.718,65.056 267.604,65.304C267.529,65.466 267.491,65.737 267.491,66.112L267.491,67.62L267.029,67.62L267.029,64.506ZM268.846,65.327C268.864,65.126 268.889,64.987 268.92,64.906C268.968,64.781 269.048,64.677 269.162,64.597C269.331,64.479 269.56,64.42 269.846,64.418C270.162,64.42 270.402,64.486 270.563,64.617C270.758,64.771 270.858,65.037 270.861,65.413L270.861,66.627L270.863,66.866L270.871,67.179C270.875,67.307 270.885,67.409 270.899,67.481L270.931,67.62L270.485,67.62C270.442,67.47 270.418,67.327 270.414,67.192L270.375,67.263C270.331,67.345 270.28,67.414 270.219,67.47C270.061,67.627 269.86,67.707 269.618,67.709C269.457,67.709 269.305,67.673 269.163,67.6C269.065,67.555 268.981,67.487 268.915,67.398C268.855,67.325 268.809,67.238 268.776,67.134C268.734,67.014 268.714,66.884 268.715,66.748C268.714,66.62 268.732,66.5 268.77,66.384C268.807,66.267 268.865,66.16 268.943,66.063C269.035,65.946 269.131,65.866 269.232,65.821C269.454,65.722 269.727,65.671 270.052,65.669L270.398,65.669C270.4,65.352 270.374,65.147 270.319,65.054C270.236,64.917 270.083,64.847 269.855,64.847C269.698,64.847 269.577,64.879 269.493,64.943C269.407,65.001 269.351,65.13 269.326,65.327L268.846,65.327ZM270.398,66.088L270.102,66.088C269.865,66.09 269.67,66.121 269.52,66.181C269.306,66.267 269.198,66.449 269.196,66.726C269.198,66.91 269.25,67.05 269.355,67.143C269.461,67.236 269.585,67.283 269.731,67.28C270.05,67.28 270.248,67.123 270.328,66.811C270.375,66.627 270.398,66.386 270.398,66.088M271.988,66.682C272.011,67.083 272.196,67.283 272.541,67.28C272.925,67.276 273.12,67.105 273.126,66.771C273.127,66.614 273.065,66.5 272.938,66.431C272.853,66.39 272.764,66.354 272.666,66.32C272.504,66.267 272.343,66.212 272.18,66.158C271.966,66.083 271.818,65.995 271.739,65.89C271.631,65.754 271.577,65.57 271.577,65.34C271.576,65.156 271.62,64.992 271.707,64.847C271.797,64.701 271.907,64.597 272.042,64.532C272.2,64.456 272.367,64.418 272.548,64.418C272.843,64.418 273.071,64.479 273.234,64.604C273.351,64.695 273.433,64.799 273.48,64.914C273.516,65.005 273.536,65.147 273.543,65.344L273.063,65.344C273.041,65.012 272.88,64.847 272.582,64.847C272.435,64.852 272.32,64.879 272.24,64.932C272.113,65.016 272.052,65.13 272.058,65.276C272.052,65.44 272.121,65.557 272.26,65.622C272.392,65.677 272.588,65.746 272.853,65.828C272.972,65.866 273.083,65.91 273.188,65.961C273.463,66.099 273.602,66.35 273.608,66.713C273.608,67.041 273.498,67.299 273.283,67.489C273.113,67.64 272.879,67.713 272.584,67.709C272.178,67.713 271.888,67.605 271.71,67.388C271.592,67.25 271.524,67.016 271.506,66.682L271.988,66.682ZM274.761,67.62L274.298,67.62L274.298,64.506L274.761,64.506L274.761,67.62ZM274.784,63.739L274.277,63.739L274.277,63.143L274.784,63.143L274.784,63.739ZM275.576,63.143L276.04,63.143L276.04,67.62L275.576,67.62L275.576,63.143ZM277.216,66.143C277.228,66.427 277.253,66.635 277.29,66.764C277.355,66.988 277.465,67.136 277.623,67.214C277.71,67.259 277.803,67.283 277.904,67.28C278.25,67.276 278.449,67.056 278.502,66.625L278.984,66.625C278.945,66.899 278.89,67.099 278.815,67.221C278.704,67.401 278.569,67.527 278.41,67.6C278.252,67.675 278.084,67.711 277.906,67.709C277.514,67.711 277.219,67.563 277.018,67.265C276.826,66.977 276.732,66.593 276.734,66.112C276.732,65.773 276.776,65.471 276.861,65.205C276.937,64.957 277.078,64.759 277.279,64.61C277.454,64.479 277.663,64.416 277.904,64.418C278.584,64.424 278.95,64.852 278.998,65.699L279.005,66.143L277.216,66.143ZM277.216,65.724L278.526,65.724C278.516,65.418 278.471,65.205 278.387,65.083C278.279,64.927 278.116,64.847 277.896,64.847C277.548,64.847 277.335,65.056 277.257,65.473L277.216,65.724ZM280.175,67.62L279.712,67.62L279.712,64.506L280.175,64.506L280.175,67.62ZM280.198,63.739L279.689,63.739L279.689,63.143L280.198,63.143L280.198,63.739ZM280.982,64.506L281.445,64.506L281.445,64.847L281.546,64.708C281.621,64.613 281.704,64.544 281.796,64.5C281.902,64.448 282.015,64.42 282.137,64.418L282.28,64.418L282.28,64.948L282.121,64.934C281.86,64.934 281.671,65.056 281.557,65.304C281.482,65.466 281.445,65.737 281.445,66.112L281.445,67.62L280.982,67.62L280.982,64.506ZM282.645,66.056C282.642,65.718 282.695,65.42 282.802,65.162C282.925,64.864 283.105,64.657 283.339,64.54C283.501,64.458 283.682,64.418 283.878,64.418C284.066,64.42 284.236,64.458 284.393,64.532C284.656,64.659 284.849,64.898 284.968,65.251C285.049,65.494 285.089,65.762 285.088,66.054C285.088,66.409 285.033,66.713 284.926,66.965C284.798,67.27 284.614,67.476 284.377,67.589C284.212,67.669 284.036,67.709 283.847,67.709C283.461,67.709 283.159,67.551 282.943,67.236C282.746,66.953 282.647,66.56 282.645,66.056M283.127,66.086C283.125,66.329 283.154,66.549 283.214,66.744C283.316,67.096 283.532,67.276 283.863,67.28C284.121,67.285 284.316,67.154 284.447,66.884C284.553,66.667 284.606,66.386 284.606,66.041C284.605,65.801 284.574,65.58 284.512,65.376C284.407,65.027 284.196,64.852 283.881,64.847C283.62,64.854 283.422,64.985 283.288,65.245C283.181,65.447 283.129,65.728 283.127,66.086M289.313,63.143L289.775,63.143L289.775,67.62L289.313,67.62L289.313,67.217C289.141,67.544 288.878,67.709 288.526,67.709C288.371,67.711 288.232,67.678 288.103,67.605C287.654,67.369 287.431,66.859 287.434,66.075C287.434,65.6 287.521,65.219 287.692,64.934C287.898,64.593 288.18,64.422 288.537,64.418C288.824,64.422 289.049,64.535 289.213,64.752L289.313,64.902L289.313,63.143ZM287.916,66.112C287.914,66.436 287.961,66.697 288.058,66.897C288.185,67.149 288.365,67.278 288.6,67.28C289.074,67.272 289.313,66.855 289.315,66.03C289.315,65.801 289.285,65.58 289.223,65.371C289.179,65.221 289.101,65.092 288.988,64.992C288.883,64.898 288.761,64.847 288.624,64.847C288.362,64.847 288.171,64.989 288.052,65.27C287.958,65.494 287.913,65.775 287.916,66.112M290.961,66.143C290.974,66.427 290.998,66.635 291.035,66.764C291.1,66.988 291.21,67.136 291.368,67.214C291.455,67.259 291.549,67.283 291.649,67.28C291.995,67.276 292.195,67.056 292.247,66.625L292.729,66.625C292.691,66.899 292.636,67.099 292.561,67.221C292.45,67.401 292.314,67.527 292.155,67.6C291.997,67.675 291.829,67.711 291.652,67.709C291.259,67.711 290.964,67.563 290.763,67.265C290.573,66.977 290.478,66.593 290.481,66.112C290.48,65.773 290.521,65.471 290.606,65.205C290.682,64.957 290.823,64.759 291.025,64.61C291.201,64.479 291.409,64.416 291.649,64.418C292.332,64.424 292.696,64.852 292.743,65.699L292.752,66.143L290.961,66.143ZM290.961,65.724L292.27,65.724C292.261,65.418 292.216,65.205 292.132,65.083C292.024,64.927 291.861,64.847 291.641,64.847C291.294,64.847 291.081,65.056 291.003,65.473L290.961,65.724ZM296.945,65.187L298.259,65.187L298.259,67.449C297.736,67.62 297.312,67.707 296.994,67.709C296.664,67.711 296.368,67.648 296.107,67.519C295.789,67.367 295.547,67.083 295.384,66.669C295.245,66.325 295.178,65.915 295.181,65.439C295.178,64.733 295.32,64.169 295.606,63.746C295.918,63.287 296.352,63.058 296.91,63.06C297.115,63.063 297.312,63.095 297.503,63.158C297.97,63.317 298.221,63.67 298.257,64.215L298.259,64.293L297.762,64.293L297.72,64.116C297.692,64.01 297.647,63.921 297.585,63.849C297.502,63.75 297.402,63.681 297.29,63.64C297.177,63.597 297.057,63.577 296.931,63.577C296.751,63.577 296.576,63.617 296.414,63.695C296.017,63.879 295.781,64.289 295.708,64.927C295.69,65.081 295.68,65.24 295.68,65.4C295.678,65.75 295.72,66.067 295.806,66.354C295.963,66.91 296.362,67.19 297.007,67.192C297.205,67.196 297.416,67.161 297.641,67.09L297.762,67.046L297.762,65.706L296.945,65.706L296.945,65.187ZM299.485,66.143C299.497,66.427 299.52,66.635 299.557,66.764C299.623,66.988 299.732,67.136 299.891,67.214C299.978,67.259 300.071,67.283 300.172,67.28C300.518,67.276 300.717,67.056 300.769,66.625L301.251,66.625C301.214,66.899 301.158,67.099 301.083,67.221C300.972,67.401 300.836,67.527 300.678,67.6C300.519,67.675 300.352,67.711 300.174,67.709C299.782,67.711 299.487,67.563 299.286,67.265C299.095,66.977 299,66.593 299.003,66.112C299.002,65.773 299.043,65.471 299.128,65.205C299.204,64.957 299.345,64.759 299.548,64.61C299.724,64.479 299.932,64.416 300.172,64.418C300.854,64.424 301.219,64.852 301.265,65.699L301.274,66.143L299.485,66.143ZM299.485,65.724L300.793,65.724C300.784,65.418 300.739,65.205 300.655,65.083C300.547,64.927 300.383,64.847 300.163,64.847C299.817,64.847 299.603,65.056 299.525,65.473L299.485,65.724ZM301.851,66.056C301.847,65.718 301.898,65.42 302.006,65.162C302.13,64.864 302.308,64.657 302.543,64.54C302.707,64.458 302.887,64.418 303.082,64.418C303.271,64.42 303.44,64.458 303.596,64.532C303.86,64.659 304.053,64.898 304.171,65.251C304.253,65.494 304.293,65.762 304.291,66.054C304.291,66.409 304.238,66.713 304.131,66.965C304.001,67.27 303.818,67.476 303.581,67.589C303.416,67.669 303.24,67.709 303.052,67.709C302.665,67.709 302.364,67.551 302.147,67.236C301.95,66.953 301.852,66.56 301.851,66.056M302.331,66.086C302.329,66.329 302.358,66.549 302.419,66.744C302.52,67.096 302.737,67.276 303.068,67.28C303.326,67.285 303.52,67.154 303.653,66.884C303.758,66.667 303.811,66.386 303.811,66.041C303.809,65.801 303.778,65.58 303.716,65.376C303.61,65.027 303.4,64.852 303.085,64.847C302.825,64.854 302.627,64.985 302.492,65.245C302.386,65.447 302.333,65.728 302.331,66.086M305.475,67.864L305.477,67.969C305.504,68.288 305.697,68.447 306.055,68.447C306.462,68.447 306.687,68.201 306.727,67.709C306.737,67.582 306.743,67.462 306.743,67.35L306.743,67.039L306.664,67.179C306.491,67.441 306.244,67.572 305.92,67.569C305.605,67.572 305.362,67.456 305.188,67.221C305.092,67.094 305.021,66.953 304.974,66.796C304.899,66.555 304.863,66.298 304.865,66.014C304.865,65.746 304.9,65.491 304.971,65.258C305.047,65.003 305.181,64.799 305.372,64.64C305.555,64.488 305.762,64.416 305.992,64.418C306.292,64.42 306.524,64.547 306.684,64.801L306.743,64.902L306.743,64.506L307.206,64.506L307.206,67.361C307.203,67.631 307.188,67.833 307.168,67.969C307.132,68.19 307.061,68.367 306.949,68.507C306.753,68.756 306.45,68.878 306.04,68.876C305.394,68.884 305.049,68.616 305.002,68.07L304.995,67.864L305.475,67.864ZM305.345,66.025C305.345,66.773 305.574,67.145 306.03,67.141C306.5,67.139 306.739,66.749 306.748,65.97C306.748,65.638 306.698,65.38 306.6,65.198C306.469,64.959 306.284,64.841 306.045,64.847C305.577,64.839 305.343,65.232 305.345,66.025M308.019,64.506L308.48,64.506L308.48,64.847L308.582,64.708C308.658,64.613 308.742,64.544 308.834,64.5C308.939,64.448 309.052,64.42 309.173,64.418L309.316,64.418L309.316,64.948L309.157,64.934C308.895,64.934 308.707,65.056 308.592,65.304C308.519,65.466 308.48,65.737 308.48,66.112L308.48,67.62L308.019,67.62L308.019,64.506ZM309.834,65.327C309.853,65.126 309.878,64.987 309.908,64.906C309.957,64.781 310.037,64.677 310.151,64.597C310.321,64.479 310.549,64.42 310.834,64.418C311.151,64.42 311.391,64.486 311.552,64.617C311.747,64.771 311.847,65.037 311.85,65.413L311.85,66.627L311.852,66.866L311.86,67.179C311.864,67.307 311.874,67.409 311.888,67.481L311.92,67.62L311.474,67.62C311.431,67.47 311.408,67.327 311.403,67.192L311.365,67.263C311.321,67.345 311.269,67.414 311.208,67.47C311.05,67.627 310.849,67.707 310.607,67.709C310.445,67.709 310.292,67.673 310.152,67.6C310.053,67.555 309.97,67.487 309.904,67.398C309.844,67.325 309.798,67.238 309.765,67.134C309.722,67.014 309.703,66.884 309.704,66.748C309.703,66.62 309.721,66.5 309.758,66.384C309.796,66.267 309.853,66.16 309.932,66.063C310.024,65.946 310.12,65.866 310.221,65.821C310.443,65.722 310.716,65.671 311.041,65.669L311.387,65.669C311.389,65.352 311.363,65.147 311.308,65.054C311.225,64.917 311.072,64.847 310.844,64.847C310.689,64.847 310.566,64.879 310.482,64.943C310.396,65.001 310.34,65.13 310.315,65.327L309.834,65.327ZM311.387,66.088L311.09,66.088C310.854,66.09 310.659,66.121 310.509,66.181C310.295,66.267 310.188,66.449 310.185,66.726C310.188,66.91 310.239,67.05 310.344,67.143C310.449,67.236 310.574,67.283 310.72,67.28C311.039,67.28 311.237,67.123 311.318,66.811C311.365,66.627 311.387,66.386 311.387,66.088M312.919,64.506L312.922,64.16C312.92,63.834 312.944,63.61 312.991,63.488C313.071,63.289 313.219,63.171 313.44,63.131C313.528,63.114 313.622,63.105 313.722,63.105L313.893,63.114L313.973,63.127L313.973,63.555L313.792,63.535C313.723,63.535 313.665,63.541 313.618,63.555C313.504,63.588 313.434,63.663 313.407,63.786C313.39,63.877 313.38,63.999 313.382,64.151L313.382,64.506L313.973,64.506L313.973,64.925L313.382,64.925L313.382,67.62L312.919,67.62L312.919,64.925L312.429,64.925L312.429,64.506L312.919,64.506ZM315.073,67.62L314.61,67.62L314.61,64.506L315.073,64.506L315.073,67.62ZM315.097,63.739L314.588,63.739L314.588,63.143L315.097,63.143L315.097,63.739ZM315.923,65.327C315.941,65.126 315.966,64.987 315.997,64.906C316.046,64.781 316.125,64.677 316.24,64.597C316.41,64.479 316.637,64.42 316.923,64.418C317.24,64.42 317.48,64.486 317.641,64.617C317.836,64.771 317.935,65.037 317.938,65.413L317.938,66.627L317.941,66.866L317.949,67.179C317.953,67.307 317.962,67.409 317.977,67.481L318.009,67.62L317.562,67.62C317.52,67.47 317.497,67.327 317.492,67.192L317.453,67.263C317.409,67.345 317.358,67.414 317.297,67.47C317.138,67.627 316.938,67.707 316.696,67.709C316.534,67.709 316.382,67.673 316.241,67.6C316.142,67.555 316.059,67.487 315.993,67.398C315.932,67.325 315.886,67.238 315.854,67.134C315.811,67.014 315.791,66.884 315.793,66.748C315.791,66.62 315.81,66.5 315.847,66.384C315.885,66.267 315.942,66.16 316.021,66.063C316.112,65.946 316.209,65.866 316.31,65.821C316.531,65.722 316.805,65.671 317.13,65.669L317.476,65.669C317.477,65.352 317.452,65.147 317.397,65.054C317.315,64.917 317.161,64.847 316.933,64.847C316.778,64.847 316.655,64.879 316.571,64.943C316.485,65.001 316.429,65.13 316.404,65.327L315.923,65.327ZM317.476,66.088L317.179,66.088C316.942,66.09 316.748,66.121 316.598,66.181C316.384,66.267 316.277,66.449 316.274,66.726C316.277,66.91 316.329,67.05 316.433,67.143C316.538,67.236 316.663,67.283 316.808,67.28C317.127,67.28 317.325,67.123 317.408,66.811C317.453,66.627 317.476,66.386 317.476,66.088M320.862,66.143C320.875,66.427 320.899,66.635 320.937,66.764C321.002,66.988 321.112,67.136 321.269,67.214C321.357,67.259 321.45,67.283 321.551,67.28C321.897,67.276 322.096,67.056 322.149,66.625L322.63,66.625C322.593,66.899 322.537,67.099 322.461,67.221C322.35,67.401 322.215,67.527 322.057,67.6C321.899,67.675 321.73,67.711 321.554,67.709C321.161,67.711 320.866,67.563 320.665,67.265C320.474,66.977 320.379,66.593 320.383,66.112C320.381,65.773 320.423,65.471 320.508,65.205C320.583,64.957 320.724,64.759 320.926,64.61C321.103,64.479 321.31,64.416 321.551,64.418C322.232,64.424 322.597,64.852 322.644,65.699L322.652,66.143L320.862,66.143ZM320.862,65.724L322.172,65.724C322.163,65.418 322.118,65.205 322.033,65.083C321.926,64.927 321.763,64.847 321.543,64.847C321.196,64.847 320.982,65.056 320.903,65.473L320.862,65.724ZM325.219,63.149L327.421,63.149L327.421,63.666L325.716,63.666L325.716,65.061L327.343,65.061L327.343,65.578L325.716,65.578L325.716,67.103L327.473,67.103L327.473,67.62L325.219,67.62L325.219,63.149ZM328.508,66.682C328.534,67.083 328.719,67.283 329.062,67.28C329.447,67.276 329.641,67.105 329.647,66.771C329.65,66.614 329.586,66.5 329.458,66.431C329.376,66.39 329.285,66.354 329.187,66.32C329.026,66.267 328.864,66.212 328.701,66.158C328.487,66.083 328.34,65.995 328.261,65.89C328.153,65.754 328.099,65.57 328.099,65.34C328.096,65.156 328.141,64.992 328.23,64.847C328.318,64.701 328.43,64.597 328.564,64.532C328.721,64.456 328.89,64.418 329.071,64.418C329.363,64.418 329.591,64.479 329.757,64.604C329.872,64.695 329.955,64.799 330.001,64.914C330.037,65.005 330.058,65.147 330.065,65.344L329.585,65.344C329.562,65.012 329.403,64.847 329.103,64.847C328.956,64.852 328.842,64.879 328.761,64.932C328.635,65.016 328.575,65.13 328.58,65.276C328.575,65.44 328.641,65.557 328.782,65.622C328.912,65.677 329.111,65.746 329.375,65.828C329.495,65.866 329.605,65.91 329.71,65.961C329.984,66.099 330.124,66.35 330.128,66.713C330.128,67.041 330.021,67.299 329.804,67.489C329.633,67.64 329.402,67.713 329.106,67.709C328.7,67.713 328.409,67.605 328.232,67.388C328.115,67.25 328.046,67.016 328.027,66.682L328.508,66.682ZM330.536,64.506L331.051,64.506L331.051,63.923L331.513,63.684L331.513,64.506L332.145,64.506L332.145,64.925L331.513,64.925L331.513,66.809L331.522,67.008L331.539,67.113C331.568,67.227 331.658,67.285 331.808,67.28C331.896,67.28 332.009,67.263 332.145,67.232L332.145,67.66C331.953,67.693 331.797,67.709 331.678,67.709C331.281,67.707 331.073,67.507 331.053,67.113L331.051,66.788L331.051,64.925L330.536,64.925L330.536,64.506ZM332.711,65.327C332.73,65.126 332.755,64.987 332.786,64.906C332.833,64.781 332.914,64.677 333.029,64.597C333.197,64.479 333.425,64.42 333.711,64.418C334.029,64.42 334.269,64.486 334.43,64.617C334.625,64.771 334.723,65.037 334.726,65.413L334.726,66.627L334.729,66.866L334.736,67.179C334.742,67.307 334.75,67.409 334.766,67.481L334.798,67.62L334.351,67.62C334.309,67.47 334.284,67.327 334.279,67.192L334.241,67.263C334.196,67.345 334.144,67.414 334.085,67.47C333.927,67.627 333.727,67.707 333.484,67.709C333.323,67.709 333.17,67.673 333.029,67.6C332.93,67.555 332.848,67.487 332.782,67.398C332.721,67.325 332.675,67.238 332.643,67.134C332.6,67.014 332.579,66.884 332.581,66.748C332.579,66.62 332.599,66.5 332.636,66.384C332.674,66.267 332.731,66.16 332.809,66.063C332.901,65.946 332.998,65.866 333.099,65.821C333.32,65.722 333.593,65.671 333.918,65.669L334.264,65.669C334.266,65.352 334.239,65.147 334.184,65.054C334.102,64.917 333.95,64.847 333.722,64.847C333.564,64.847 333.443,64.879 333.359,64.943C333.274,65.001 333.218,65.13 333.192,65.327L332.711,65.327ZM334.264,66.088L333.967,66.088C333.731,66.09 333.537,66.121 333.387,66.181C333.172,66.267 333.063,66.449 333.062,66.726C333.063,66.91 333.117,67.05 333.222,67.143C333.327,67.236 333.452,67.283 333.597,67.28C333.915,67.28 334.114,67.123 334.194,66.811C334.241,66.627 334.264,66.386 334.264,66.088M335.24,64.506L335.754,64.506L335.754,63.923L336.215,63.684L336.215,64.506L336.847,64.506L336.847,64.925L336.215,64.925L336.215,66.809L336.223,67.008L336.241,67.113C336.27,67.227 336.36,67.285 336.51,67.28C336.599,67.28 336.711,67.263 336.847,67.232L336.847,67.66C336.655,67.693 336.499,67.709 336.38,67.709C335.983,67.707 335.774,67.507 335.756,67.113L335.754,66.788L335.754,64.925L335.24,64.925L335.24,64.506ZM337.945,67.62L337.482,67.62L337.482,64.506L337.945,64.506L337.945,67.62ZM337.924,63.164L338.561,63.164L337.887,64.12L337.445,64.12L337.924,63.164ZM339.107,66.682C339.133,67.083 339.318,67.283 339.662,67.28C340.046,67.276 340.24,67.105 340.246,66.771C340.249,66.614 340.186,66.5 340.057,66.431C339.975,66.39 339.884,66.354 339.786,66.32C339.625,66.267 339.463,66.212 339.302,66.158C339.086,66.083 338.939,65.995 338.86,65.89C338.752,65.754 338.698,65.57 338.698,65.34C338.695,65.156 338.74,64.992 338.829,64.847C338.917,64.701 339.029,64.597 339.163,64.532C339.321,64.456 339.489,64.418 339.669,64.418C339.962,64.418 340.191,64.479 340.356,64.604C340.473,64.695 340.554,64.799 340.6,64.914C340.636,65.005 340.657,65.147 340.664,65.344L340.183,65.344C340.162,65.012 340.002,64.847 339.702,64.847C339.555,64.852 339.441,64.879 339.361,64.932C339.234,65.016 339.174,65.13 339.179,65.276C339.174,65.44 339.241,65.557 339.381,65.622C339.512,65.677 339.71,65.746 339.974,65.828C340.093,65.866 340.204,65.91 340.309,65.961C340.583,66.099 340.723,66.35 340.727,66.713C340.727,67.041 340.62,67.299 340.403,67.489C340.232,67.64 340.001,67.713 339.705,67.709C339.299,67.713 339.008,67.605 338.831,67.388C338.714,67.25 338.646,67.016 338.626,66.682L339.107,66.682ZM341.136,64.506L341.65,64.506L341.65,63.923L342.113,63.684L342.113,64.506L342.744,64.506L342.744,64.925L342.113,64.925L342.113,66.809L342.121,67.008L342.138,67.113C342.167,67.227 342.256,67.285 342.407,67.28C342.495,67.28 342.609,67.263 342.744,67.232L342.744,67.66C342.552,67.693 342.396,67.709 342.277,67.709C341.88,67.707 341.671,67.507 341.652,67.113L341.65,66.788L341.65,64.925L341.136,64.925L341.136,64.506ZM343.847,67.62L343.384,67.62L343.384,64.506L343.847,64.506L343.847,67.62ZM343.87,63.739L343.362,63.739L343.362,63.143L343.87,63.143L343.87,63.739ZM346.301,65.496C346.253,65.067 346.059,64.852 345.721,64.847C345.619,64.847 345.523,64.868 345.434,64.912C345.27,64.992 345.163,65.13 345.112,65.325C345.053,65.531 345.025,65.754 345.025,65.986C345.025,66.386 345.059,66.675 345.13,66.855C345.24,67.145 345.434,67.287 345.708,67.28C346.019,67.28 346.21,67.139 346.279,66.855C346.301,66.781 346.316,66.688 346.329,66.576L346.811,66.576C346.785,66.798 346.755,66.961 346.72,67.061C346.671,67.21 346.588,67.335 346.472,67.443C346.276,67.62 346.024,67.709 345.713,67.709C345.319,67.709 345.024,67.56 344.826,67.261C344.637,66.975 344.544,66.591 344.544,66.107C344.542,65.57 344.636,65.167 344.826,64.896C345.047,64.579 345.358,64.42 345.76,64.418C346.122,64.422 346.39,64.54 346.562,64.773C346.659,64.904 346.722,65.058 346.751,65.236L346.781,65.496" style="fill:rgb(0,65,130);fill-rule:nonzero;"/>
        </g>
        <g transform="matrix(4.16667,0,0,4.16667,1448.05,3236.45)">
            <path d="M0,-1.473C0.019,-1.674 0.044,-1.813 0.073,-1.894C0.122,-2.019 0.202,-2.123 0.317,-2.203C0.486,-2.321 0.714,-2.38 1,-2.382C1.317,-2.38 1.556,-2.314 1.719,-2.183C1.913,-2.029 2.011,-1.763 2.015,-1.387L2.015,-0.173L2.017,0.066L2.026,0.379C2.031,0.507 2.04,0.609 2.053,0.681L2.086,0.82L1.641,0.82C1.597,0.67 1.573,0.527 1.568,0.392L1.53,0.463C1.485,0.545 1.434,0.614 1.374,0.67C1.215,0.827 1.014,0.907 0.774,0.909C0.61,0.909 0.459,0.873 0.318,0.8C0.219,0.755 0.136,0.687 0.069,0.598C0.01,0.525 -0.036,0.438 -0.068,0.334C-0.112,0.214 -0.132,0.084 -0.13,-0.053C-0.132,-0.18 -0.113,-0.3 -0.076,-0.416C-0.038,-0.533 0.019,-0.64 0.098,-0.737C0.189,-0.854 0.287,-0.934 0.386,-0.979C0.608,-1.078 0.881,-1.129 1.207,-1.131L1.553,-1.131C1.555,-1.448 1.528,-1.653 1.473,-1.746C1.391,-1.883 1.238,-1.953 1.011,-1.953C0.854,-1.953 0.732,-1.921 0.648,-1.857C0.563,-1.799 0.506,-1.67 0.48,-1.473L0,-1.473ZM1.553,-0.712L1.255,-0.712C1.018,-0.71 0.826,-0.679 0.675,-0.619C0.461,-0.533 0.353,-0.351 0.35,-0.074C0.353,0.11 0.406,0.25 0.511,0.343C0.615,0.436 0.74,0.483 0.884,0.48C1.204,0.48 1.404,0.323 1.484,0.011C1.53,-0.173 1.553,-0.414 1.553,-0.712" style="fill:rgb(0,65,130);fill-rule:nonzero;"/>
        </g>
        <g transform="matrix(4.16667,0,0,4.16667,1064.9,3170.09)">
            <path d="M0,-2.633C0.548,-4.089 1.942,-5.055 3.499,-5.055C5.564,-5.055 7.237,-3.38 7.237,-1.318C7.237,0.747 5.564,2.422 3.499,2.422C1.435,2.422 -0.239,0.747 -0.239,-1.318C-0.239,-1.766 -0.158,-2.212 0,-2.633" style="fill:rgb(116,146,193);"/>
        </g>
        <g transform="matrix(4.16667,0,0,4.16667,1143.48,3206.08)">
            <path d="M0,-9.268L-3.464,0.211C-3.701,0.866 -3.99,0.896 -4.549,0.896L-18.584,0.896C-18.584,0.896 -19.074,0.894 -18.584,0.211C-14.213,-5.87 -8.913,-10.164 -0.226,-9.944C-0.226,-9.944 0.248,-9.949 0,-9.268" style="fill:rgb(116,146,193);"/>
        </g>
        <g transform="matrix(4.16667,0,0,4.16667,1015.4,3123.24)">
            <path d="M0,9.27L3.463,-0.211C3.702,-0.864 3.991,-0.896 4.548,-0.896L18.643,-0.892C18.643,-0.892 19.129,-0.89 18.643,-0.211C14.275,5.877 8.912,10.166 0.225,9.946C0.225,9.946 -0.248,9.949 0,9.27" style="fill:rgb(116,146,193);"/>
        </g>
        <g transform="matrix(4.16667,0,0,4.16667,1011.88,3173.13)">
            <path d="M0,7.44C-1.085,6.079 -1.525,4.033 -0.578,1.346L0.137,-0.686C0.271,-1.065 0.382,-1.362 1.083,-1.362L4.314,-1.362C8.67,-1.362 10.834,-1.362 11.938,-0.009C13.041,1.346 13.612,3.302 12.602,6.085L11.864,8.117C11.744,8.453 11.653,8.802 10.813,8.802L7.566,8.802C4.025,8.802 1.083,8.802 0,7.44" style="fill:rgb(116,146,193);"/>
        </g>
        <g transform="matrix(4.16667,0,0,4.16667,1147.29,3156.09)">
            <path d="M0,-7.438C1.085,-6.077 1.525,-4.034 0.578,-1.344L-0.137,0.687C-0.271,1.065 -0.382,1.364 -1.083,1.364L-4.314,1.364C-8.67,1.364 -10.836,1.364 -11.938,0.009C-13.043,-1.344 -13.611,-3.302 -12.602,-6.086L-11.864,-8.115C-11.744,-8.451 -11.653,-8.802 -10.813,-8.802L-7.566,-8.802C-4.025,-8.802 -1.083,-8.802 0,-7.438" style="fill:rgb(116,146,193);"/>
        </g>
        <g transform="matrix(4.16667,0,0,4.16667,1151.72,3119.6)">
            <path d="M0,21.639L7.886,-0.051L14.028,-0.051L6.381,21.639L0,21.639ZM10.157,21.639L18.043,-0.051L25.832,-0.051C28.145,-0.03 30.194,0.131 31.977,0.428C33.761,0.729 34.519,1.796 34.249,3.635C34.246,3.655 34.242,3.679 34.237,3.71C34.233,3.739 34.23,3.764 34.226,3.783C34.22,3.823 34.216,3.855 34.212,3.874C34.209,3.895 34.205,3.925 34.2,3.965C33.957,5.622 33.258,6.975 32.106,8.024C30.955,9.073 29.464,9.765 27.637,10.106C29.344,10.586 30.409,11.191 30.83,11.918C31.253,12.646 31.386,13.541 31.231,14.6C30.956,16.477 30.003,18.029 28.375,19.257C26.747,20.486 25.043,21.251 23.26,21.551C22.995,21.591 22.738,21.614 22.486,21.624C22.234,21.633 21.989,21.639 21.75,21.639L10.157,21.639ZM17.886,17.145L21.66,17.145C22.256,17.166 22.844,16.936 23.425,16.456C24.004,15.979 24.396,15.447 24.6,14.868C24.633,14.788 24.659,14.71 24.68,14.629C24.702,14.549 24.719,14.469 24.731,14.389C24.798,13.93 24.672,13.535 24.35,13.207C24.029,12.875 23.429,12.712 22.551,12.712L19.499,12.683L17.886,17.145ZM21.123,7.95L24.658,7.95C25.373,7.969 25.984,7.76 26.488,7.32C26.991,6.88 27.321,6.4 27.478,5.882C27.486,5.821 27.5,5.766 27.517,5.717C27.533,5.667 27.545,5.622 27.552,5.582C27.621,5.103 27.504,4.677 27.199,4.309C26.895,3.939 26.332,3.754 25.513,3.754L22.462,3.724L21.123,7.95ZM33.749,13.372C34.487,9.157 36.389,5.791 39.454,3.276C42.519,0.758 46.179,-0.499 50.434,-0.499C50.892,-0.499 51.381,-0.488 51.896,-0.47C52.414,-0.451 52.936,-0.411 53.467,-0.349C54.782,-0.191 55.953,0.23 56.982,0.909C58.011,1.587 58.4,2.786 58.148,4.504C58.109,4.764 58.052,5.047 57.977,5.358C57.902,5.667 57.799,5.99 57.669,6.33L51.772,6.301C51.789,5.502 51.592,4.879 51.178,4.428C50.764,3.98 49.909,3.754 48.611,3.754C46.854,3.754 45.174,4.584 43.573,6.239C41.97,7.899 40.902,9.736 40.367,11.752C40.335,11.832 40.311,11.928 40.295,12.038C40.28,12.147 40.262,12.262 40.245,12.382C40.203,12.662 40.18,12.958 40.175,13.267C40.168,13.575 40.182,13.89 40.216,14.211C40.321,15.128 40.672,15.972 41.268,16.742C41.864,17.511 42.84,17.893 44.2,17.893C44.539,17.893 45.013,17.864 45.62,17.805C46.228,17.745 46.967,17.534 47.84,17.175L49.051,13.611L44.828,13.611L46.412,9.146L56.807,9.146L52.712,20.921C50.539,21.299 48.558,21.593 46.771,21.804C44.982,22.014 43.439,22.119 42.141,22.119L41.542,22.119C38.223,22.138 36.001,21.324 34.876,19.678C33.749,18.029 33.372,15.935 33.745,13.402L33.749,13.372ZM56.382,21.639L64.059,-0.051L80.805,-0.051L79.227,4.174L68.861,4.174L67.277,8.428L76.955,8.428L75.367,12.921L65.689,12.921L64.111,17.145L74.747,17.145L73.128,21.639" style="fill:rgb(0,65,130);fill-rule:nonzero;"/>
        </g>
    </g>
</svg>
